<?xml version="1.0" encoding="UTF-8"?>
<svg id="Calque_2" data-name="Calque 2" xmlns="http://www.w3.org/2000/svg" viewBox="0 0 1180.8 448.81">
  <defs>
    <style>
      .cls-1 {
        fill: #1c1c1c;
      }

      .cls-2 {
        fill: #f2b200;
      }
    </style>
  </defs>
  <g id="Calque_2-2" data-name="Calque 2">
    <g>
      <path class="cls-1" d="M0,442.77V152.04h49.13v244.02h60.8v46.71H0Z"/>
      <path class="cls-1" d="M137.31,442.77V152.04h49.13v290.73h-49.13Z"/>
      <path class="cls-1" d="M326.97,261.57v-39.86c0-12.89-6.44-27.79-27.38-27.79s-26.58,14.9-26.58,27.79v151.41c0,12.88,6.44,27.78,26.58,27.78s27.38-14.9,27.38-27.78v-39.06h-26.17v-46.31h74.49v90.6c0,34.23-20.94,70.47-75.7,70.47s-75.7-36.24-75.7-70.47v-161.88c0-34.23,20.94-70.47,75.7-70.47s75.7,36.24,75.7,70.47v45.1h-48.32Z"/>
      <path class="cls-1" d="M514.22,442.77v-108.72h-53.15v108.72h-49.13V152.04h49.13v135.3h53.15v-135.3h49.13v290.73h-49.13Z"/>
      <path class="cls-1" d="M588.68,434.68l54.77-182.43-32.8-37.8,13.43-44.74,128.04,38.44-13.43,44.74-48.19,13.48-54.77,182.43-47.05-14.13Z"/>
      <path class="cls-1" d="M841.34,378.34v-161.88c0-34.23,20.94-70.47,75.7-70.47s75.7,36.24,75.7,70.47v161.88c0,34.23-20.94,70.47-75.7,70.47s-75.7-36.24-75.7-70.47ZM890.46,373.11c0,12.88,6.44,27.78,26.58,27.78s26.58-14.9,26.58-27.78v-151.41c0-12.89-6.44-27.79-26.58-27.79s-26.58,14.9-26.58,27.79v151.41Z"/>
      <path class="cls-1" d="M1131.67,442.77v-221.07c0-12.89-6.44-27.79-26.58-27.79s-26.58,14.9-26.58,27.79v221.07h-49.13v-226.3c0-34.23,20.94-70.47,75.7-70.47s75.7,36.24,75.7,70.47v226.3h-49.13Z"/>
      <path class="cls-2" d="M841.69,64.26L628.6.28c-4.32-1.3-8.65,2-8.53,6.51l4.02,162.91,128.04,38.44,93.09-133.76c2.58-3.7.78-8.84-3.54-10.14Z"/>
    </g>
  </g>
</svg>